<svg xmlns="http://www.w3.org/2000/svg" viewBox="0 0 400 400" fill="none">
  <rect width="400" height="400" fill="#f4f4f5"/>
  <ellipse cx="200" cy="340" rx="120" ry="18" fill="#e4e4e7"/>
  <path d="M135 100c0-20 28-32 65-32s65 12 65 32v18l36 26-14 50-22-16v158H135V178l-22 16-14-50 36-26v-18z" fill="#27272a"/>
  <path d="M165 68c18-6 36-6 54 0v30c-18 6-36 6-54 0V68z" fill="#18181b"/>
  <path d="M150 140h100v14H150v-14z" fill="#52525b" opacity="0.5"/>
  <path d="M155 165h90v6H155v-6z" fill="#52525b" opacity="0.35"/>
</svg>
