<svg xmlns="http://www.w3.org/2000/svg" viewBox="0 0 400 400" fill="none">
  <rect width="400" height="400" fill="#f0fdf4"/>
  <ellipse cx="200" cy="340" rx="120" ry="18" fill="#d1fae5"/>
  <path d="M130 95c0-22 31-35 70-35s70 13 70 35v18l38 28-14 52-24-18v155H130V175l-24 18-14-52 38-28V95z" fill="#10b981"/>
  <path d="M170 60c20-8 40-8 60 0v35c-20 8-40 8-60 0V60z" fill="#059669"/>
  <path d="M155 130h90v12c0 8-20 14-45 14s-45-6-45-14v-12z" fill="#34d399" opacity="0.6"/>
  <rect x="175" y="200" width="50" height="6" rx="3" fill="#ecfdf5" opacity="0.5"/>
  <rect x="165" y="215" width="70" height="4" rx="2" fill="#ecfdf5" opacity="0.4"/>
</svg>
