<svg xmlns="http://www.w3.org/2000/svg" viewBox="0 0 400 400" fill="none">
  <rect width="400" height="400" fill="#f8fafc"/>
  <ellipse cx="200" cy="340" rx="120" ry="18" fill="#e2e8f0"/>
  <path d="M80 220c40-30 120-40 180-20 30 10 50 30 60 50 10 20 5 40-20 50-60 25-150 15-220-80z" fill="#334155"/>
  <path d="M100 230c35-20 100-28 155-12 25 8 42 24 50 40 5 12 2 28-15 35-50 20-120 12-190-63z" fill="#475569"/>
  <path d="M120 245c30-12 85-18 130-6 20 6 32 18 38 32 4 10 2 22-10 28-40 16-95 10-158-54z" fill="#1e293b"/>
  <ellipse cx="155" cy="255" rx="18" ry="10" fill="#94a3b8" opacity="0.5"/>
  <ellipse cx="210" cy="262" rx="14" ry="8" fill="#94a3b8" opacity="0.4"/>
  <ellipse cx="260" cy="268" rx="12" ry="7" fill="#94a3b8" opacity="0.35"/>
  <path d="M95 218c20-15 55-22 90-18" stroke="#64748b" stroke-width="3" stroke-linecap="round"/>
  <path d="M250 200l30-25 15 10-20 30z" fill="#f97316"/>
  <path d="M265 185l8-6 5 8-10 5z" fill="#fb923c"/>
</svg>
